<?xml version="1.0" standalone="no"?>
<!DOCTYPE svg PUBLIC "-//W3C//DTD SVG 20010904//EN"
 "http://www.w3.org/TR/2001/REC-SVG-20010904/DTD/svg10.dtd">
<svg version="1.0" xmlns="http://www.w3.org/2000/svg"
 width="430.000000pt" height="337.000000pt" viewBox="0 0 430.000000 337.000000"
 preserveAspectRatio="xMidYMid meet">

<g transform="translate(0.000000,337.000000) scale(0.100000,-0.100000)"
fill="#000000" stroke="none">
<path d="M1140 3021 c-74 -24 -140 -83 -181 -161 l-24 -45 0 -535 0 -535 27
-52 c37 -70 90 -118 155 -143 139 -52 285 0 361 128 l27 47 3 534 c3 599 4
592 -67 673 -55 62 -120 92 -206 95 -38 1 -81 -1 -95 -6z"/>
<path d="M2560 2988 c-76 -39 -123 -95 -146 -174 -13 -45 -15 -102 -12 -336
l3 -283 27 -51 c90 -171 308 -213 449 -86 94 84 94 83 97 425 4 338 0 363 -67
439 -56 63 -119 92 -211 96 -69 4 -80 1 -140 -30z"/>
<path d="M3360 1204 c-256 -131 -285 -138 -518 -128 -201 8 -237 0 -303 -66
-52 -52 -67 -100 -50 -159 34 -116 178 -181 401 -181 278 0 554 110 722 289
127 134 153 251 72 326 -21 19 -37 25 -73 24 -38 0 -82 -19 -251 -105z"/>
</g>
</svg>
