<svg width="50" height="50" viewBox="0 0 50 50" fill="none" xmlns="http://www.w3.org/2000/svg">
<g clip-path="url(#clip0_77_215)">
<path fill-rule="evenodd" clip-rule="evenodd" d="M0 25C0 11.1929 11.1929 0 25 0C38.8071 0 50 11.1929 50 25C50 38.8071 38.8071 50 25 50C11.1929 50 0 38.8071 0 25ZM14.9641 38.2161C14.6438 39.4064 13.419 40.1118 12.2286 39.7914C11.0382 39.4711 10.3329 38.2464 10.6532 37.0557C12.3566 30.7258 18.1341 26.0638 25.0062 26.0638C31.8783 26.0638 37.6557 30.7258 39.3593 37.0557C39.6796 38.2464 38.9743 39.4711 37.7839 39.7914C36.5936 40.1118 35.3687 39.4064 35.0483 38.2161C33.8562 33.7859 29.8088 30.5281 25.0062 30.5281C20.2036 30.5281 16.1563 33.7859 14.9641 38.2161ZM16.3641 21.3429C14.3473 21.3382 12.7139 19.7018 12.7139 17.684C12.7139 15.6632 14.352 14.025 16.3728 14.025L16.3814 14.025C18.3982 14.0297 20.0317 15.6661 20.0317 17.684C20.0317 19.7047 18.3935 21.3429 16.3728 21.3429L16.3641 21.3429ZM33.6186 21.3429C31.6018 21.3382 29.9683 19.7019 29.9683 17.684C29.9683 15.6632 31.6064 14.025 33.6272 14.025L33.6359 14.025C35.6527 14.0297 37.2861 15.6661 37.2861 17.684C37.2861 19.7047 35.648 21.3429 33.6273 21.3429L33.6186 21.3429Z" fill="#78A2FE"/>
</g>
<defs>
<clipPath id="clip0_77_215">
<rect width="50" height="50" fill="white"/>
</clipPath>
</defs>
</svg>
