<svg width="50" height="50" viewBox="0 0 50 50" fill="none" xmlns="http://www.w3.org/2000/svg">
<g clip-path="url(#clip0_77_213)">
<path fill-rule="evenodd" clip-rule="evenodd" d="M50 25C50 11.1929 38.8071 0 25 0C11.1929 0 0 11.1929 0 25C0 38.8071 11.1929 50 25 50C38.8071 50 50 38.8071 50 25ZM37.2861 17.684C37.2861 19.7018 35.6527 21.3382 33.6359 21.3429L33.6273 21.3429C31.6065 21.3429 29.9683 19.7047 29.9683 17.684C29.9683 15.6661 31.6018 14.0297 33.6186 14.025L33.6272 14.025C35.648 14.025 37.2861 15.6632 37.2861 17.684ZM20.0317 17.684C20.0317 19.7019 18.3983 21.3382 16.3814 21.3429L16.3728 21.3429C14.352 21.3429 12.7138 19.7047 12.7138 17.684C12.7138 15.6661 14.3473 14.0297 16.3641 14.025L16.3728 14.025C18.3936 14.025 20.0317 15.6632 20.0317 17.684ZM14.9641 27.7159C14.6438 26.5255 13.419 25.8202 12.2286 26.1405C11.0382 26.4609 10.3329 27.6856 10.6532 28.876C12.3566 35.2061 18.1341 39.8682 25.0062 39.8682C31.8783 39.8682 37.6557 35.2061 39.3593 28.876C39.6796 27.6856 38.9743 26.4609 37.7839 26.1405C36.5936 25.8202 35.3687 26.5255 35.0483 27.7159C33.8562 32.146 29.8088 35.4038 25.0062 35.4038C20.2036 35.4038 16.1563 32.146 14.9641 27.7159Z" fill="#31AC54"/>
</g>
<defs>
<clipPath id="clip0_77_213">
<rect width="50" height="50" fill="white"/>
</clipPath>
</defs>
</svg>
