<svg width="69" height="69" viewBox="0 0 69 69" fill="none" xmlns="http://www.w3.org/2000/svg">
<g clip-path="url(#clip0_77_180)">
<path fill-rule="evenodd" clip-rule="evenodd" d="M34.1504 9.33349C20.4443 9.33349 9.33317 20.4446 9.33313 34.1509C9.33309 47.8571 20.4442 58.9681 34.1504 58.9679C47.8566 58.9682 58.9676 47.8569 58.9678 34.1508C58.9677 20.4446 47.8567 9.33349 34.1504 9.33349ZM21.7939 21.4914C22.7194 20.677 24.1298 20.7671 24.9442 21.6925L29.7447 27.1475C30.324 27.8059 30.4642 28.7425 30.1029 29.5416C29.7416 30.3408 28.946 30.8543 28.069 30.8543L22.1272 30.8543C20.8945 30.8543 19.8951 29.8549 19.8951 28.6221C19.8951 27.3894 20.8945 26.39 22.1272 26.39L23.1313 26.39L21.5928 24.6418C20.7784 23.7163 20.8685 22.3059 21.7939 21.4914ZM46.7081 24.6417C47.5225 23.7162 47.4325 22.3058 46.507 21.4914C45.5815 20.677 44.1711 20.767 43.3567 21.6925L38.5562 27.1475C37.9769 27.8059 37.8367 28.7425 38.198 29.5416C38.5592 30.3407 39.3549 30.8543 40.2319 30.8543L46.1737 30.8543C47.4064 30.8543 48.4058 29.8549 48.4058 28.6221C48.4058 27.3894 47.4065 26.39 46.1737 26.39L45.1696 26.39L46.7081 24.6417ZM20.3449 38.1216C20.3449 37.1354 21.1444 36.3359 22.1306 36.3358L46.1737 36.3359C47.1598 36.3358 47.9593 37.1353 47.9594 38.1215C47.9593 40.3253 46.9055 43.3169 44.7103 45.7563C42.4555 48.2618 38.9751 50.2114 34.1522 50.2114C29.3294 50.2114 25.8489 48.2618 23.5941 45.7562C21.3987 43.317 20.3449 40.3254 20.3449 38.1216Z" fill="#F2FF00"/>
</g>
<defs>
<clipPath id="clip0_77_180">
<rect width="50" height="50" fill="white" transform="translate(25) rotate(30)"/>
</clipPath>
</defs>
</svg>
