<svg width="50" height="50" viewBox="0 0 50 50" fill="none" xmlns="http://www.w3.org/2000/svg">
<g clip-path="url(#clip0_77_217)">
<path fill-rule="evenodd" clip-rule="evenodd" d="M50 25C50 11.1929 38.8071 0 25 0C11.1929 0 0 11.1929 0 25C0 38.8071 11.1929 50 25 50C38.8071 50 50 38.8071 50 25ZM37.2861 17.684C37.2861 19.7018 35.6527 21.3382 33.6359 21.3429L33.6273 21.3429C31.6065 21.3429 29.9683 19.7047 29.9683 17.684C29.9683 15.6661 31.6018 14.0297 33.6186 14.025L33.6272 14.025C35.648 14.025 37.2861 15.6632 37.2861 17.684ZM20.0317 17.684C20.0317 19.7019 18.3983 21.3382 16.3814 21.3429L16.3728 21.3429C14.352 21.3429 12.7138 19.7047 12.7138 17.684C12.7138 15.6661 14.3473 14.0297 16.3641 14.025L16.3728 14.025C18.3936 14.025 20.0317 15.6632 20.0317 17.684ZM33.7579 31.0699C34.9907 31.0699 35.99 32.0693 35.99 33.302C35.99 34.5348 34.9907 35.5342 33.7579 35.5342H16.2421C15.0093 35.5342 14.0099 34.5348 14.0099 33.302C14.0099 32.0693 15.0093 31.0699 16.2421 31.0699H33.7579Z" fill="#828282"/>
</g>
<defs>
<clipPath id="clip0_77_217">
<rect width="50" height="50" fill="white"/>
</clipPath>
</defs>
</svg>
