<svg width="50" height="50" viewBox="0 0 50 50" fill="none" xmlns="http://www.w3.org/2000/svg">
<g clip-path="url(#clip0_77_227)">
<path fill-rule="evenodd" clip-rule="evenodd" d="M50.0008 25C50.0008 11.1929 38.808 0 25.001 0C11.1939 0 0.000976562 11.1929 0.000976562 25C0.000976562 38.8071 11.1939 50 25.001 50C38.808 50 50.0008 38.8071 50.0008 25ZM29.4954 8.56836C29.3142 8.71675 28.7993 8.98779 27.8887 9.21379C27.0309 9.42671 26.0117 9.55246 25.0011 9.55246C23.9905 9.55246 22.9713 9.42671 22.1134 9.21379C21.2029 8.98779 20.6879 8.71675 20.5068 8.56836C19.5532 7.78707 18.1468 7.92671 17.3655 8.88032C16.5842 9.83389 16.7239 11.2403 17.6775 12.0216C18.6042 12.7809 19.862 13.2547 21.038 13.5466C22.2667 13.8516 23.6481 14.0168 25.0011 14.0168C26.354 14.0168 27.7354 13.8516 28.9641 13.5466C30.1402 13.2547 31.3979 12.7809 32.3247 12.0216C33.2783 11.2403 33.418 9.83389 32.6367 8.88032C31.8554 7.92671 30.449 7.78707 29.4954 8.56836ZM32.1953 33.1329C32.1953 29.0501 29.1089 25.4906 25.0057 25.4906C20.9024 25.4906 17.816 29.0501 17.816 33.1329C17.816 37.2157 20.9024 40.775 25.0057 40.775C29.1089 40.775 32.1953 37.2157 32.1953 33.1329ZM33.6371 22.7361C35.6539 22.7314 37.2872 21.0951 37.2872 19.0772C37.2872 17.0564 35.6492 15.4183 33.6284 15.4183H33.6197C31.603 15.423 29.9695 17.0593 29.9695 19.0772C29.9695 21.098 31.6077 22.7361 33.6285 22.7361H33.6371ZM16.3824 22.7361C18.3992 22.7314 20.0327 21.0951 20.0327 19.0772C20.0327 17.0564 18.3946 15.4183 16.3738 15.4183H16.3651C14.3483 15.4229 12.7148 17.0593 12.7148 19.0772C12.7148 21.098 14.353 22.7361 16.3737 22.7361H16.3824Z" fill="#FF0000"/>
</g>
<defs>
<clipPath id="clip0_77_227">
<rect width="50" height="50" fill="white"/>
</clipPath>
</defs>
</svg>
